<?xml version="1.0" encoding="UTF-8" standalone="no"?><!DOCTYPE svg PUBLIC "-//W3C//DTD SVG 1.1//EN" "http://www.w3.org/Graphics/SVG/1.1/DTD/svg11.dtd"><svg width="100%" height="100%" viewBox="0 0 62 62" version="1.1" xmlns="http://www.w3.org/2000/svg" xmlns:xlink="http://www.w3.org/1999/xlink" xml:space="preserve" xmlns:serif="http://www.serif.com/" style="fill-rule:evenodd;clip-rule:evenodd;stroke-linejoin:round;stroke-miterlimit:2;"><g><path d="M30.72,7.2l29.52,7.51l-29.52,28.25l-29.52,-28.25l29.52,-7.51Z"/><path d="M46.535,19.143c0,1.979 -0.535,3.562 -1.604,4.749c-1.103,1.221 -2.632,1.832 -4.585,1.832c-0.48,0 -1.206,-0.019 -2.179,-0.057c-0.973,-0.038 -1.703,-0.057 -2.192,-0.057c-0.269,0 -0.404,0.173 -0.404,0.518c0,0.446 0.027,1.116 0.082,2.008c0.055,0.893 0.082,6.236 0.082,6.682c0,0.143 -0.08,0.215 -0.24,0.215c-0.177,0 -0.444,-0.019 -0.802,-0.057c-0.358,-0.038 -0.625,-0.057 -0.802,-0.057c-0.152,0 -0.375,0.013 -0.669,0.038c-0.295,0.025 -0.514,0.038 -0.657,0.038c-0.211,0 -0.316,-0.131 -0.316,-0.392c0,-0.918 0.04,-6.977 0.12,-8.829c0.08,-1.853 0.12,-3.242 0.12,-4.168c0,-2.627 -0.097,-5.448 -0.291,-8.463l-0.013,-0.189c-0.008,-0.185 0.101,-0.278 0.328,-0.278c0.455,0 1.139,0.004 2.053,0.013c0.914,0.008 1.602,0.013 2.065,0.013c0.396,0 0.989,-0.017 1.781,-0.051c0.792,-0.034 1.385,-0.051 1.781,-0.051c1.861,0 3.389,0.632 4.585,1.895c1.171,1.238 1.756,2.787 1.756,4.648Zm-3.183,0.189c0,-1.263 -0.341,-2.274 -1.023,-3.032c-0.707,-0.792 -1.684,-1.187 -2.931,-1.187c-0.387,0 -1.078,0.034 -2.072,0.101c-1.137,0.067 -1.722,0.135 -1.756,0.202c-0.059,0.101 -0.088,1.549 -0.088,4.345c0,0.354 0.011,0.884 0.032,1.592c0.021,0.707 0.032,1.238 0.032,1.592c0,0.076 0.093,0.135 0.278,0.177c0.463,0.093 1.747,0.139 3.853,0.139c1.179,0 2.097,-0.366 2.754,-1.099c0.615,-0.699 0.922,-1.642 0.922,-2.829Zm-28.447,-0.189c0,-1.861 0.585,-3.411 1.756,-4.648c1.196,-1.263 2.724,-1.895 4.585,-1.895c0.396,0 0.989,0.017 1.781,0.051c0.792,0.034 1.385,0.051 1.781,0.051c0.463,0 1.152,-0.004 2.065,-0.013c0.914,-0.008 1.598,-0.013 2.053,-0.013c0.227,0 0.337,0.093 0.328,0.278l-0.013,0.189c-0.194,3.015 -0.291,5.836 -0.291,8.463c0,0.926 0.04,2.316 0.12,4.168c0.08,1.853 0.12,7.912 0.12,8.829c0,0.261 -0.105,0.392 -0.316,0.392c-0.143,0 -0.362,-0.013 -0.657,-0.038c-0.295,-0.025 -0.518,-0.038 -0.669,-0.038c-0.177,0 -0.444,0.019 -0.802,0.057c-0.358,0.038 -0.625,0.057 -0.802,0.057c-0.16,0 -0.24,-0.072 -0.24,-0.215c0,-0.446 0.027,-5.789 0.082,-6.682c0.055,-0.893 0.082,-1.562 0.082,-2.008c0,-0.345 -0.135,-0.518 -0.404,-0.518c-0.488,0 -1.219,0.019 -2.192,0.057c-0.973,0.038 -1.699,0.057 -2.179,0.057c-1.954,0 -3.482,-0.611 -4.585,-1.832c-1.069,-1.187 -1.604,-2.771 -1.604,-4.749Zm3.183,0.189c0,1.187 0.307,2.131 0.922,2.829c0.657,0.733 1.575,1.099 2.754,1.099c2.105,0 3.389,-0.046 3.853,-0.139c0.185,-0.042 0.278,-0.101 0.278,-0.177c0,-0.354 0.011,-0.884 0.032,-1.592c0.021,-0.707 0.032,-1.238 0.032,-1.592c0,-2.796 -0.029,-4.244 -0.088,-4.345c-0.034,-0.067 -0.619,-0.135 -1.756,-0.202c-0.994,-0.067 -1.684,-0.101 -2.072,-0.101c-1.246,0 -2.223,0.396 -2.931,1.187c-0.682,0.758 -1.023,1.768 -1.023,3.032Z" style="fill:#fff;"/><path d="M30.72,9.96c0,0 3.864,-0.72 5.52,-0.72c0.397,0 0.72,0.323 0.72,0.72c0,0.397 -0.323,0.72 -0.72,0.72c-1.656,0 -5.52,-0.72 -5.52,-0.72Z" style="fill:#fff;"/><path d="M30.72,9.96c0,0 -3.864,0.72 -5.52,0.72c-0.397,0 -0.72,-0.323 -0.72,-0.72c0,-0.397 0.323,-0.72 0.72,-0.72c1.656,0 5.52,0.72 5.52,0.72Z" style="fill:#fff;"/></g><g transform="matrix(0.24,0,0,0.24,-4.928755,-2.202699)"><g><g transform="matrix(37.693252,0,0,37.693252,48,220)"><path d="M0.604,-0.432c0,0.076 -0.021,0.138 -0.062,0.184c-0.043,0.047 -0.102,0.071 -0.177,0.071c-0.019,0 -0.047,-0.001 -0.084,-0.002c-0.038,-0.001 -0.066,-0.002 -0.085,-0.002c-0.01,0 -0.016,0.007 -0.016,0.02c0,0.017 0.001,0.043 0.003,0.078c0.002,0.035 0.003,0.06 0.003,0.078c0,0.006 -0.003,0.008 -0.009,0.008c-0.007,0 -0.017,-0.001 -0.031,-0.002c-0.014,-0.001 -0.024,-0.002 -0.031,-0.002c-0.006,0 -0.014,0 -0.026,0.001c-0.011,0.001 -0.02,0.001 -0.025,0.001c-0.008,-0 -0.012,-0.005 -0.012,-0.015c0,-0.035 0.002,-0.089 0.005,-0.161c0.003,-0.072 0.005,-0.125 0.005,-0.161c0,-0.102 -0.004,-0.211 -0.011,-0.327l-0,-0.007c-0,-0.007 0.004,-0.011 0.013,-0.011c0.018,0 0.044,0 0.079,0c0.035,0 0.062,0 0.08,0c0.015,0 0.038,-0.001 0.069,-0.002c0.031,-0.001 0.054,-0.002 0.069,-0.002c0.072,0 0.131,0.024 0.177,0.073c0.045,0.048 0.068,0.108 0.068,0.18Zm-0.123,0.007c0,-0.049 -0.013,-0.088 -0.04,-0.117c-0.027,-0.031 -0.065,-0.046 -0.113,-0.046c-0.015,0 -0.042,0.001 -0.08,0.004c-0.044,0.003 -0.067,0.005 -0.068,0.008c-0.002,0.004 -0.003,0.06 -0.003,0.168c0,0.014 0,0.034 0.001,0.062c0.001,0.027 0.001,0.048 0.001,0.062c0,0.003 0.004,0.005 0.011,0.007c0.018,0.004 0.068,0.005 0.149,0.005c0.046,0 0.081,-0.014 0.106,-0.042c0.024,-0.027 0.036,-0.063 0.036,-0.109Z" style="fill-rule:nonzero;"/></g><g transform="matrix(37.693252,0,0,37.693252,71.521472,220)"><path d="M0.173,-0.677l-0,0.006c-0.007,0.121 -0.011,0.225 -0.011,0.312c0,0.039 0.001,0.097 0.002,0.174c0.001,0.077 0.002,0.135 0.002,0.174c0,0.007 -0.003,0.011 -0.008,0.011l-0.093,-0c-0.006,-0 -0.009,-0.004 -0.009,-0.011c0,-0.038 0,-0.096 0.001,-0.174c0.001,-0.077 0.001,-0.135 0.001,-0.174c0,-0.035 -0.002,-0.088 -0.005,-0.158c-0.003,-0.07 -0.005,-0.123 -0.005,-0.158c0,-0.007 0.003,-0.01 0.01,-0.01c0.006,0 0.015,0 0.026,0.001c0.012,0.001 0.021,0.001 0.026,0.001c0.006,0 0.015,-0 0.027,-0.001c0.012,-0.001 0.021,-0.001 0.027,-0.001c0.006,0 0.009,0.003 0.008,0.008Z" style="fill-rule:nonzero;"/></g><g transform="matrix(37.693252,0,0,37.693252,79.822086,220)"><path d="M0.524,-0.442c0,0.001 -0,0.004 -0.001,0.009c-0.013,0.075 -0.019,0.139 -0.019,0.193c0,0.003 0.004,0.076 0.012,0.219l0,0.007c0,0.009 -0.004,0.014 -0.013,0.014c-0.009,-0 -0.022,0.001 -0.041,0.003c-0.018,0.002 -0.031,0.003 -0.04,0.003c-0.006,0 -0.011,-0.011 -0.014,-0.034c-0.003,-0.023 -0.006,-0.034 -0.009,-0.034c-0.002,0 -0.011,0.006 -0.026,0.019c-0.019,0.016 -0.037,0.028 -0.054,0.036c-0.026,0.013 -0.051,0.02 -0.077,0.02c-0.063,0 -0.116,-0.025 -0.16,-0.076c-0.041,-0.048 -0.062,-0.104 -0.062,-0.168c0,-0.072 0.021,-0.132 0.062,-0.179c0.043,-0.049 0.1,-0.074 0.171,-0.074c0.05,0 0.093,0.017 0.13,0.052c0.006,0.007 0.014,0.016 0.026,0.028c0.001,0.001 0.002,0.001 0.003,0.001c0.002,0 0.005,-0.01 0.008,-0.031c0.004,-0.021 0.008,-0.031 0.014,-0.031c0.009,0 0.025,0.002 0.049,0.007c0.027,0.006 0.04,0.011 0.04,0.016Zm-0.125,0.204c0,-0.04 -0.012,-0.074 -0.036,-0.103c-0.025,-0.031 -0.057,-0.046 -0.096,-0.046c-0.039,0 -0.072,0.015 -0.098,0.046c-0.025,0.029 -0.038,0.064 -0.038,0.104c0,0.039 0.013,0.074 0.038,0.103c0.026,0.03 0.059,0.045 0.098,0.045c0.038,0 0.07,-0.015 0.096,-0.046c0.024,-0.029 0.036,-0.063 0.036,-0.102Z" style="fill-rule:nonzero;"/></g><g transform="matrix(37.693252,0,0,37.693252,100.711656,220)"><path d="M0.177,-0.584c0,0.04 -0.022,0.06 -0.067,0.06c-0.045,0 -0.068,-0.02 -0.068,-0.06c0,-0.018 0.007,-0.033 0.021,-0.044c0.013,-0.011 0.029,-0.017 0.047,-0.017c0.018,0 0.034,0.006 0.047,0.017c0.013,0.011 0.02,0.026 0.02,0.044Zm-0.003,0.132c0,0.025 -0.002,0.063 -0.005,0.114c-0.003,0.051 -0.005,0.089 -0.005,0.114c0,0.024 0,0.059 0.001,0.107c0.001,0.047 0.001,0.083 0.001,0.106c0,0.007 -0.003,0.01 -0.009,0.01l-0.095,0c-0.007,0 -0.01,-0.007 -0.01,-0.02c0,-0.022 0.001,-0.056 0.002,-0.101c0.001,-0.045 0.002,-0.079 0.002,-0.102c0,-0.025 -0.002,-0.063 -0.006,-0.114c-0.004,-0.051 -0.006,-0.089 -0.006,-0.114c0,-0.006 0.003,-0.008 0.01,-0.008c0.006,0 0.015,0.001 0.027,0.002c0.012,0.002 0.021,0.002 0.028,0.002c0.006,0 0.015,-0.001 0.028,-0.002c0.012,-0.002 0.021,-0.002 0.028,-0.002c0.006,0 0.008,0.003 0.008,0.009Z" style="fill-rule:nonzero;"/></g><g transform="matrix(37.693252,0,0,37.693252,109.01227,220)"><path d="M0.48,-0.01c0,0.007 -0.003,0.011 -0.01,0.011c-0.011,0 -0.085,-0.001 -0.096,-0.001c-0.006,-0 -0.009,-0.005 -0.009,-0.014c0,-0.016 0,-0.04 0.001,-0.073c0.001,-0.033 0.001,-0.057 0.001,-0.073c0,-0.013 -0,-0.032 -0,-0.058c-0,-0.026 -0,-0.045 -0,-0.058c0,-0.037 -0.005,-0.063 -0.016,-0.079c-0.013,-0.018 -0.037,-0.027 -0.072,-0.027c-0.016,0 -0.039,0.009 -0.068,0.027c-0.031,0.019 -0.046,0.036 -0.046,0.051l0,0.293c0,0.008 -0.003,0.012 -0.009,0.012c-0.01,0 -0.083,-0.001 -0.094,-0.001c-0.007,-0 -0.01,-0.004 -0.01,-0.011c0,-0.026 0,-0.064 0.001,-0.116c0.001,-0.051 0.001,-0.09 0.001,-0.116c0,-0.069 -0.007,-0.133 -0.022,-0.192c-0.001,-0.003 -0.001,-0.005 -0.001,-0.006c0,-0.003 0.002,-0.006 0.006,-0.007c0.002,-0 0.021,-0.003 0.056,-0.009c0.035,-0.006 0.053,-0.009 0.055,-0.009c0.002,0 0.003,0.003 0.004,0.008c0.002,0.02 0.005,0.041 0.011,0.061c0.017,-0.013 0.039,-0.03 0.067,-0.05c0.034,-0.021 0.067,-0.031 0.099,-0.031c0.061,0 0.103,0.018 0.125,0.053c0.017,0.026 0.025,0.068 0.025,0.126c0,0.01 -0,0.026 -0.001,0.046c-0,0.021 -0.001,0.036 -0.001,0.047c0,0.022 0,0.054 0.001,0.098c0.001,0.043 0.001,0.076 0.001,0.098Z" style="fill-rule:nonzero;"/></g><g transform="matrix(37.693252,0,0,37.693252,138.147239,220)"><path d="M0.604,-0.432c0,0.076 -0.021,0.138 -0.062,0.184c-0.043,0.047 -0.102,0.071 -0.177,0.071c-0.019,0 -0.047,-0.001 -0.084,-0.002c-0.038,-0.001 -0.066,-0.002 -0.085,-0.002c-0.01,0 -0.016,0.007 -0.016,0.02c0,0.017 0.001,0.043 0.003,0.078c0.002,0.035 0.003,0.06 0.003,0.078c0,0.006 -0.003,0.008 -0.009,0.008c-0.007,0 -0.017,-0.001 -0.031,-0.002c-0.014,-0.001 -0.024,-0.002 -0.031,-0.002c-0.006,0 -0.014,0 -0.026,0.001c-0.011,0.001 -0.02,0.001 -0.025,0.001c-0.008,-0 -0.012,-0.005 -0.012,-0.015c0,-0.035 0.002,-0.089 0.005,-0.161c0.003,-0.072 0.005,-0.125 0.005,-0.161c0,-0.102 -0.004,-0.211 -0.011,-0.327l-0,-0.007c-0,-0.007 0.004,-0.011 0.013,-0.011c0.018,0 0.044,0 0.079,0c0.035,0 0.062,0 0.08,0c0.015,0 0.038,-0.001 0.069,-0.002c0.031,-0.001 0.054,-0.002 0.069,-0.002c0.072,0 0.131,0.024 0.177,0.073c0.045,0.048 0.068,0.108 0.068,0.18Zm-0.123,0.007c0,-0.049 -0.013,-0.088 -0.04,-0.117c-0.027,-0.031 -0.065,-0.046 -0.113,-0.046c-0.015,0 -0.042,0.001 -0.08,0.004c-0.044,0.003 -0.067,0.005 -0.068,0.008c-0.002,0.004 -0.003,0.06 -0.003,0.168c0,0.014 0,0.034 0.001,0.062c0.001,0.027 0.001,0.048 0.001,0.062c0,0.003 0.004,0.005 0.011,0.007c0.018,0.004 0.068,0.005 0.149,0.005c0.046,0 0.081,-0.014 0.106,-0.042c0.024,-0.027 0.036,-0.063 0.036,-0.109Z" style="fill-rule:nonzero;"/></g><g transform="matrix(37.693252,0,0,37.693252,161.668712,220)"><path d="M0.524,-0.442c0,0.001 -0,0.004 -0.001,0.009c-0.013,0.075 -0.019,0.139 -0.019,0.193c0,0.003 0.004,0.076 0.012,0.219l0,0.007c0,0.009 -0.004,0.014 -0.013,0.014c-0.009,-0 -0.022,0.001 -0.041,0.003c-0.018,0.002 -0.031,0.003 -0.04,0.003c-0.006,0 -0.011,-0.011 -0.014,-0.034c-0.003,-0.023 -0.006,-0.034 -0.009,-0.034c-0.002,0 -0.011,0.006 -0.026,0.019c-0.019,0.016 -0.037,0.028 -0.054,0.036c-0.026,0.013 -0.051,0.02 -0.077,0.02c-0.063,0 -0.116,-0.025 -0.16,-0.076c-0.041,-0.048 -0.062,-0.104 -0.062,-0.168c0,-0.072 0.021,-0.132 0.062,-0.179c0.043,-0.049 0.1,-0.074 0.171,-0.074c0.05,0 0.093,0.017 0.13,0.052c0.006,0.007 0.014,0.016 0.026,0.028c0.001,0.001 0.002,0.001 0.003,0.001c0.002,0 0.005,-0.01 0.008,-0.031c0.004,-0.021 0.008,-0.031 0.014,-0.031c0.009,0 0.025,0.002 0.049,0.007c0.027,0.006 0.04,0.011 0.04,0.016Zm-0.125,0.204c0,-0.04 -0.012,-0.074 -0.036,-0.103c-0.025,-0.031 -0.057,-0.046 -0.096,-0.046c-0.039,0 -0.072,0.015 -0.098,0.046c-0.025,0.029 -0.038,0.064 -0.038,0.104c0,0.039 0.013,0.074 0.038,0.103c0.026,0.03 0.059,0.045 0.098,0.045c0.038,0 0.07,-0.015 0.096,-0.046c0.024,-0.029 0.036,-0.063 0.036,-0.102Z" style="fill-rule:nonzero;"/></g><g transform="matrix(37.693252,0,0,37.693252,182.558282,220)"><path d="M0.329,-0.458c0,0.036 -0.002,0.068 -0.007,0.098c-0.001,0.007 -0.004,0.011 -0.01,0.011c-0.007,0 -0.017,-0.001 -0.031,-0.002c-0.014,-0.001 -0.024,-0.002 -0.031,-0.002c-0.041,0 -0.067,0.012 -0.079,0.035c-0.007,0.014 -0.01,0.043 -0.01,0.087l0,0.054c0,0.018 0.001,0.046 0.002,0.083c0.001,0.037 0.002,0.065 0.002,0.083c0,0.009 -0.004,0.013 -0.011,0.013c-0.01,0 -0.082,-0.001 -0.092,-0.001c-0.007,-0 -0.011,-0.004 -0.011,-0.012c0,-0.026 0,-0.066 0.001,-0.119c0.001,-0.053 0.001,-0.093 0.001,-0.12c0,-0.08 -0.007,-0.145 -0.022,-0.194c-0.001,-0.003 -0.001,-0.005 -0.001,-0.006c0,-0.004 0.002,-0.007 0.006,-0.008c0.012,-0.001 0.029,-0.003 0.051,-0.006c0.035,-0.007 0.051,-0.01 0.049,-0.01c0.005,0 0.009,0.01 0.01,0.029c0.002,0.019 0.005,0.029 0.009,0.029c0.001,0 0.001,-0 0.002,-0.001c0.013,-0.008 0.027,-0.017 0.04,-0.025c0.015,-0.009 0.03,-0.015 0.045,-0.02c0.013,-0.004 0.029,-0.006 0.049,-0.006c0.025,0 0.038,0.003 0.038,0.01Z" style="fill-rule:nonzero;"/></g><g transform="matrix(37.693252,0,0,37.693252,195.110429,220)"><path d="M0.391,-0.443c0,0.007 -0.004,0.023 -0.011,0.048c-0.007,0.025 -0.013,0.037 -0.016,0.037c-0.015,-0.007 -0.029,-0.013 -0.044,-0.02c-0.015,-0.007 -0.031,-0.01 -0.049,-0.01c-0.04,0 -0.073,0.015 -0.1,0.044c-0.027,0.03 -0.04,0.065 -0.04,0.105c0,0.04 0.013,0.074 0.04,0.103c0.027,0.03 0.061,0.045 0.1,0.045c0.022,0 0.043,-0.005 0.064,-0.016c0.021,-0.011 0.03,-0.016 0.028,-0.016c0.004,0 0.009,0.014 0.014,0.041c0.005,0.025 0.007,0.042 0.007,0.051c0,0.01 -0.019,0.02 -0.057,0.03c-0.032,0.008 -0.056,0.012 -0.071,0.012c-0.067,0 -0.124,-0.025 -0.17,-0.075c-0.045,-0.049 -0.068,-0.107 -0.068,-0.175c0,-0.069 0.022,-0.128 0.066,-0.176c0.046,-0.049 0.102,-0.074 0.17,-0.074c0.046,0 0.087,0.012 0.125,0.035c0.007,0.004 0.01,0.007 0.01,0.01Z" style="fill-rule:nonzero;"/></g><g transform="matrix(37.693252,0,0,37.693252,210.257669,220)"><path d="M0.463,-0.262c0,0.024 -0.01,0.04 -0.031,0.048c-0.014,0.005 -0.115,0.015 -0.302,0.029c0.004,0.029 0.02,0.053 0.047,0.073c0.026,0.019 0.054,0.029 0.084,0.029c0.051,0 0.099,-0.017 0.142,-0.05c0.005,-0.004 0.01,-0.008 0.016,-0.013c0.003,0 0.004,0 0.005,0.001c0.001,0.001 0.007,0.012 0.018,0.034c0.011,0.022 0.017,0.034 0.017,0.035c0,0.002 -0.003,0.006 -0.008,0.011c-0.048,0.051 -0.109,0.076 -0.184,0.076c-0.076,0 -0.136,-0.023 -0.181,-0.068c-0.045,-0.045 -0.067,-0.105 -0.067,-0.18c0,-0.067 0.021,-0.125 0.064,-0.175c0.045,-0.052 0.101,-0.078 0.167,-0.078c0.061,0 0.112,0.022 0.153,0.067c0.04,0.044 0.06,0.097 0.06,0.159Zm-0.116,-0.03c0,-0.027 -0.011,-0.051 -0.032,-0.072c-0.021,-0.021 -0.045,-0.031 -0.072,-0.031c-0.03,0 -0.057,0.012 -0.08,0.036c-0.023,0.024 -0.035,0.051 -0.035,0.081c0,0.007 0.006,0.01 0.018,0.01c0.048,0 0.106,-0.005 0.173,-0.015c0.019,-0.003 0.028,-0.006 0.028,-0.01Z" style="fill-rule:nonzero;"/></g><g transform="matrix(37.693252,0,0,37.693252,228.423313,220)"><path d="M0.173,-0.677l-0,0.006c-0.007,0.121 -0.011,0.225 -0.011,0.312c0,0.039 0.001,0.097 0.002,0.174c0.001,0.077 0.002,0.135 0.002,0.174c0,0.007 -0.003,0.011 -0.008,0.011l-0.093,-0c-0.006,-0 -0.009,-0.004 -0.009,-0.011c0,-0.038 0,-0.096 0.001,-0.174c0.001,-0.077 0.001,-0.135 0.001,-0.174c0,-0.035 -0.002,-0.088 -0.005,-0.158c-0.003,-0.07 -0.005,-0.123 -0.005,-0.158c0,-0.007 0.003,-0.01 0.01,-0.01c0.006,0 0.015,0 0.026,0.001c0.012,0.001 0.021,0.001 0.026,0.001c0.006,0 0.015,-0 0.027,-0.001c0.012,-0.001 0.021,-0.001 0.027,-0.001c0.006,0 0.009,0.003 0.008,0.008Z" style="fill-rule:nonzero;"/></g><g transform="matrix(37.693252,0,0,37.693252,236.723926,220)"><path d="M0.278,-0.15c0,0.049 -0.019,0.087 -0.058,0.117c-0.035,0.027 -0.078,0.04 -0.128,0.04c-0.02,0 -0.031,-0 -0.033,-0.001c-0.006,-0.003 -0.008,-0.011 -0.008,-0.024c0,-0.007 -0.001,-0.018 -0.003,-0.032c-0.002,-0.014 -0.003,-0.025 -0.003,-0.032c0,-0.004 0.003,-0.007 0.009,-0.008c0.004,-0.001 0.01,-0.001 0.018,0c0.01,0.001 0.015,0.001 0.015,0.001c0.062,0 0.092,-0.019 0.092,-0.057c0,-0.018 -0.014,-0.034 -0.041,-0.049c-0.044,-0.024 -0.069,-0.039 -0.076,-0.044c-0.027,-0.023 -0.041,-0.053 -0.041,-0.091c0,-0.049 0.018,-0.087 0.055,-0.114c0.033,-0.024 0.075,-0.037 0.126,-0.037c0.005,0 0.008,0.002 0.01,0.006c0.002,0.004 0.006,0.017 0.012,0.04c0.006,0.022 0.009,0.035 0.009,0.04c0,0.004 -0.003,0.006 -0.009,0.007c-0.021,0.003 -0.042,0.006 -0.063,0.008c-0.025,0.007 -0.038,0.021 -0.038,0.041c0,0.015 0.013,0.029 0.04,0.044c0.039,0.022 0.064,0.038 0.074,0.047c0.027,0.025 0.04,0.058 0.04,0.098Z" style="fill-rule:nonzero;"/></g></g></g></svg>